Coordinates
version=1
nRows=11
nColumns=36
inDegrees=yes

Units are S.I. units (second, meters, Newtons, ...)
If the header above contains a line with 'inDegrees', this indicates whether rotational values are in degrees (yes) or radians (no).

endheader
time	pelvis_tilt	pelvis_list	pelvis_rotation	pelvis_tx	pelvis_ty	pelvis_tz	hip_flexion_r	hip_adduction_r	hip_rotation_r	knee_angle_r	knee_angle_r_beta	ankle_angle_r	subtalar_angle_r	mtp_angle_r	hip_flexion_l	hip_adduction_l	hip_rotation_l	knee_angle_l	knee_angle_l_beta	ankle_angle_l	subtalar_angle_l	mtp_angle_l	lumbar_extension	lumbar_bending	lumbar_rotation	arm_flex_r	arm_add_r	arm_rot_r	elbow_flex_r	pro_sup_r	arm_flex_l	arm_add_l	arm_rot_l	elbow_flex_l	pro_sup_l
      1.23333330	     -3.44066702	      2.38373356	     -5.35110501	     -0.09439406	      1.24743403	     -0.02662731	      3.53191720	     -3.88442243	     -3.27631416	      7.88120610	      0.13755300	     16.79716537	      0.62560837	     -7.49998689	      0.43420689	      0.18195495	      2.43310926	      4.09976939	      0.07155447	     11.98782981	      5.98473209	     -7.49998689	     -7.15230416	     -1.45234553	     -2.04482722	      8.12359053	     -9.04892953	     13.67977846	     20.63948146	     70.14575102	      6.67709430	     -6.66111144	      3.33381388	     19.77686286	     68.99046678
      1.25000000	     -3.55901065	      2.46475033	     -5.42041254	     -0.09127349	      1.24803650	     -0.03282719	      3.88554664	     -3.98003177	     -3.18498396	      8.03571748	      0.14024973	     16.79692306	      0.63986511	     -7.49998701	      0.70520506	      0.26556453	      2.50263304	      4.42008946	      0.07714511	     11.98267411	      6.03726040	     -7.49998701	     -7.25569441	     -1.48448633	     -2.10270160	      8.23071543	     -9.12731089	     13.73314202	     20.73051256	     70.27938449	      6.80316660	     -6.66527239	      3.38191570	     19.95366946	     69.11550771
      1.26666670	     -3.50875862	      2.48686389	     -5.52936219	     -0.07170568	      1.24613069	     -0.03162479	      3.80711236	     -4.00828319	     -2.96704012	      7.99011393	      0.13945380	     16.87749420	      0.75911034	     -7.49998714	      0.51381623	      0.30732968	      2.59569968	      4.54104894	      0.07925626	     11.97195408	      6.03138348	     -7.49998714	     -6.91570420	     -1.47683321	     -2.15166732	      7.72749838	     -9.17182714	     13.75500500	     20.70513342	     70.32551513	      6.30769721	     -6.60017698	      3.38375654	     19.97707244	     69.14730482
      1.28333330	     -3.42924115	      2.45825876	     -5.65684433	     -0.08102369	      1.24644734	     -0.02823650	      3.74309617	     -3.97573794	     -2.89062012	      8.00271684	      0.13967376	     16.98848346	      0.86496068	     -7.49998722	      0.45449368	      0.26755676	      2.63349695	      4.86151726	      0.08484948	     12.14094497	      5.95642559	     -7.49998722	     -6.81536570	     -1.48037468	     -2.21491105	      7.56309983	     -9.18813522	     13.78607871	     20.61001649	     70.43913718	      6.17948642	     -6.60394314	      3.39138282	     19.93738327	     69.23281418
      1.30000000	     -3.32522436	      2.44539923	     -5.64738012	     -0.08214352	      1.24770766	     -0.02877060	      3.57982304	     -3.95571565	     -2.81702300	      8.23246245	      0.14368358	     17.06351142	      0.92111067	     -7.49998841	      0.44754385	      0.22955875	      2.79997718	      5.25143032	      0.09165475	     12.20936173	      5.91370417	     -7.49998841	     -6.70562527	     -1.50647415	     -2.36901471	      7.46679180	     -9.13942764	     13.79869526	     20.47376849	     70.12180710	      6.02922061	     -6.63540512	      3.36299351	     19.72814252	     68.88142525
      1.31666670	     -3.36955811	      2.42051420	     -5.60533068	     -0.09218207	      1.25581509	     -0.02563483	      3.61749610	     -3.86948003	     -2.68754262	      8.39805286	      0.14657367	     17.03853069	      0.97656169	     -7.49998845	      0.60745580	      0.13895344	      2.86969133	      5.46314050	      0.09534979	     12.23885332	      5.91079646	     -7.49998845	     -6.74126967	     -1.58549161	     -2.41014976	      7.42206826	     -9.25273373	     13.79393705	     20.48305890	     70.13383931	      6.04582379	     -6.80779720	      3.34949712	     19.75666941	     68.89124485
      1.33333330	     -3.39540536	      2.47153989	     -5.59108246	     -0.07042032	      1.25857741	     -0.03156125	      3.60024948	     -3.93335640	     -2.57106490	      8.71312317	      0.15207269	     17.26037670	      0.84779987	     -7.49998889	      0.49649260	      0.21444604	      2.98049841	      5.56890159	      0.09719567	     12.14728073	      5.73823722	     -7.49998889	     -6.29877858	     -1.58833891	     -2.55746724	      7.44095420	     -9.21887429	     13.96824235	     19.41739685	     70.78405697	      6.01950085	     -6.69517893	      3.31656480	     18.40560496	     69.39661495
      1.35000000	     -3.34842846	      2.42577423	     -5.61112369	     -0.06950123	      1.25838492	     -0.03089786	      3.43468824	     -3.88340143	     -2.50072382	      8.68149889	      0.15152074	     17.30763939	      0.77219896	     -7.49998961	      0.28591357	      0.19060050	      3.15222807	      5.67593589	      0.09906377	     12.10609370	      5.68218116	     -7.49998961	     -6.03072987	     -1.51436058	     -2.70729338	      7.02410271	     -9.43081709	     13.94486302	     19.21915623	     70.77168520	      5.65789110	     -6.52791434	      3.20339804	     17.94241339	     69.33846274
      1.36666670	     -3.53071367	      2.45764405	     -5.73053909	     -0.07075164	      1.25202058	     -0.03136362	      3.57263826	     -3.90190667	     -2.40777996	      8.77577651	      0.15316619	     17.40483111	      0.58019744	     -7.49999096	      0.44987617	      0.23879248	      3.22151123	      6.01067350	      0.10490604	     12.20748526	      5.47972321	     -7.49999096	     -5.54093779	     -1.51449923	     -2.67953476	      6.89202492	     -9.60041747	     14.06202771	     18.63064922	     71.50023242	      5.52525992	     -6.40223397	      3.07549592	     17.11914224	     69.89660952
      1.38333330	     -3.39287082	      2.49972507	     -5.80502095	     -0.05869348	      1.25465084	     -0.03341318	      3.36957510	     -4.00762323	     -2.30736264	      8.97482661	      0.15664027	     17.73922611	      0.48386310	     -7.49999107	      0.26569734	      0.34847102	      3.31281316	      6.43914809	      0.11238434	     12.31098747	      5.40797199	     -7.49999107	     -5.43372205	     -1.49784883	     -2.74334707	      6.47561736	     -9.81038310	     14.02185517	     18.35909513	     71.58603998	      5.11105655	     -6.35447381	      3.03652464	     16.87839799	     69.97411252
      1.40000000	     -3.19525623	      2.48357389	     -5.93542309	     -0.04927107	      1.25446075	     -0.02917349	      2.96564487	     -4.03820231	     -2.24972961	      9.05870975	      0.15810431	     17.93975036	      0.38464437	     -7.49999110	     -0.02315774	      0.39147137	      3.35386968	      6.93071221	      0.12096375	     12.36134081	      5.28488838	     -7.49999110	     -5.15936492	     -1.50667814	     -2.78262997	      5.87621956	    -10.00467946	     13.99893474	     18.02857384	     71.60638700	      4.49230256	     -6.33538272	      3.02477761	     16.58263749	     69.99375211
